<svg width="26" height="33" viewBox="0 0 26 33" fill="none" xmlns="http://www.w3.org/2000/svg">
<path fill-rule="evenodd" clip-rule="evenodd" d="M15.6308 8.34189L11.6353 1.2713C11.5478 1.11739 11.3897 1.01574 11.2132 1.0019C11.037 0.986868 10.865 1.06179 10.7539 1.19971C10.7539 1.19971 6.33104 6.70927 3.44767 12.9005C1.47887 17.1295 0.258885 21.6772 1.50341 25.0614C3.30983 29.9777 7.47423 32 13.5903 32C19.7312 32 22.9814 28.7632 24.264 25.7571C25.6357 22.5437 24.9179 18.6077 23.5204 15.0446C21.4734 9.82785 18.0111 5.42496 18.0111 5.42496C17.9 5.28275 17.7225 5.20687 17.543 5.22286C17.3624 5.23908 17.2034 5.34598 17.119 5.50633L15.6308 8.34189ZM13.1856 30.9287C12.9483 30.9253 12.7143 30.9179 12.4835 30.9072C10.722 30.7404 9.13971 29.7197 8.26477 28.1567C7.08959 26.0593 7.68243 23.4971 8.75721 21.1741C10.0702 18.3358 12.1428 15.8418 12.9965 14.8769C13.8478 15.8476 15.9139 18.3542 17.2259 21.1979C18.2995 23.5229 18.8957 26.0811 17.7322 28.1573C16.8038 29.8174 15.0764 30.8651 13.1855 30.9293L13.1856 30.9287ZM17.0561 30.5042C20.4319 29.6042 22.3902 27.4265 23.2824 25.3377C24.5506 22.3661 23.8188 18.7314 22.526 15.4365C21.0058 11.5614 18.6821 8.14842 17.6705 6.75446L16.1202 9.70706C16.0293 9.88006 15.8522 9.98911 15.6566 9.99245C15.4611 9.99555 15.2794 9.89199 15.1833 9.72091L11.1002 2.49638C9.88849 4.0882 6.6718 8.50727 4.4154 13.3518C2.57681 17.3008 1.34394 21.5317 2.50526 24.6928C3.62275 27.7318 5.75083 29.5159 8.74438 30.3521C8.18565 29.902 7.70492 29.3451 7.33216 28.6791C5.99551 26.2921 6.56503 23.3683 7.78835 20.7246C9.54776 16.9202 12.6128 13.7109 12.6128 13.7109C12.7132 13.6049 12.8532 13.545 12.9996 13.545C13.146 13.5462 13.286 13.6061 13.3864 13.713C13.3864 13.713 16.4386 16.9424 18.1961 20.7488C19.4183 23.3955 19.9886 26.3149 18.6649 28.6788C18.2483 29.4216 17.6994 30.0299 17.0562 30.5035L17.0561 30.5042Z" fill="white" stroke="white" stroke-width="0.5"/>
</svg>
