<?xml version="1.0" standalone="no"?>
<!DOCTYPE svg PUBLIC "-//W3C//DTD SVG 20010904//EN"
 "http://www.w3.org/TR/2001/REC-SVG-20010904/DTD/svg10.dtd">
<svg version="1.0" xmlns="http://www.w3.org/2000/svg"
 width="1067.000000pt" height="777.000000pt" viewBox="0 0 1067.000000 777.000000"
 preserveAspectRatio="xMidYMid meet">

<g transform="translate(0.000000,777.000000) scale(0.100000,-0.100000)"
fill="#000000" stroke="none">
<path d="M4901 6589 c-48 -15 -85 -45 -112 -92 -21 -37 -24 -58 -27 -164 l-4
-122 -808 -3 -808 -3 -44 -31 c-23 -17 -53 -49 -65 -70 l-23 -39 0 -735 0
-735 23 -39 c12 -21 42 -53 65 -70 l44 -31 809 -3 809 -2 0 -195 0 -195 -1087
-2 c-1055 -3 -1089 -4 -1127 -22 -29 -15 -128 -121 -359 -385 -176 -202 -326
-380 -333 -398 -18 -41 -18 -115 0 -156 13 -31 488 -578 616 -709 46 -47 77
-69 105 -77 28 -8 374 -11 1113 -11 l1072 0 0 -881 c0 -629 3 -893 11 -926 20
-77 105 -143 186 -143 67 0 146 50 179 112 12 23 14 172 14 932 l0 905 813 3
c769 3 814 4 846 22 55 29 89 74 101 131 7 34 10 288 8 762 l-3 711 -31 43
c-18 24 -52 54 -75 66 l-44 22 -807 1 -808 0 0 195 0 195 1078 0 c721 0 1089
4 1115 11 21 5 53 23 71 40 63 55 631 699 654 741 29 53 29 127 2 182 -21 42
-623 714 -671 748 -14 11 -43 23 -65 28 -22 6 -504 10 -1111 10 l-1073 0 0
128 c0 124 -1 130 -29 173 -43 69 -138 103 -220 78z m2516 -1007 c116 -130
212 -241 212 -247 0 -5 -95 -119 -212 -252 l-212 -243 -1902 0 -1903 0 0 490
0 490 1903 0 1902 0 212 -238z m-887 -2402 l0 -490 -1902 0 -1903 0 -213 239
c-118 132 -213 243 -212 248 0 4 96 117 213 251 l211 242 1903 0 1903 0 0
-490z"/>
</g>
</svg>
