<?xml version="1.0" standalone="no"?>
<!DOCTYPE svg PUBLIC "-//W3C//DTD SVG 20010904//EN"
 "http://www.w3.org/TR/2001/REC-SVG-20010904/DTD/svg10.dtd">
<svg version="1.0" xmlns="http://www.w3.org/2000/svg"
 width="512.000000pt" height="512.000000pt" viewBox="0 0 512.000000 512.000000"
 preserveAspectRatio="xMidYMid meet">

<g transform="translate(0.000000,512.000000) scale(0.100000,-0.100000)"
fill="#000000" stroke="none">
<path d="M2860 4820 l0 -300 150 0 150 0 0 300 0 300 -150 0 -150 0 0 -300z"/>
<path d="M1840 4635 l-105 -105 213 -213 212 -212 107 108 108 107 -210 210
c-115 115 -212 210 -215 210 -3 0 -52 -47 -110 -105z"/>
<path d="M3855 4530 l-210 -210 108 -107 107 -108 212 212 213 213 -105 105
c-58 58 -107 105 -110 105 -3 0 -100 -95 -215 -210z"/>
<path d="M345 4186 c-185 -47 -315 -193 -341 -384 l-7 -52 152 0 c129 0 151 2
151 15 0 34 39 91 78 113 37 21 52 22 226 22 211 0 250 -10 282 -73 10 -17
146 -556 304 -1196 l287 -1165 -56 -36 c-246 -159 -282 -490 -76 -695 100
-100 198 -135 382 -135 l105 0 -6 -32 c-37 -173 3 -318 119 -433 212 -213 570
-162 708 102 55 106 68 205 41 331 l-6 32 472 0 473 0 -7 -32 c-37 -173 3
-318 119 -433 258 -259 695 -118 757 244 40 232 -117 461 -350 510 -37 8 -419
11 -1289 11 l-1235 0 -40 22 c-45 25 -78 80 -78 128 0 44 33 102 72 125 32 20
55 20 1443 25 l1409 5 343 1195 c188 657 343 1196 343 1198 0 1 -868 2 -1930
2 l-1929 0 -10 38 c-6 20 -22 87 -37 147 -15 62 -42 139 -61 178 -61 115 -178
203 -304 227 -75 14 -443 11 -504 -4z m4372 -903 c-2 -10 -118 -415 -257 -901
l-253 -882 -1215 2 -1216 3 -218 885 c-120 487 -218 891 -218 898 0 9 345 12
1691 12 1606 0 1691 -1 1686 -17z m-2387 -2703 c45 -23 80 -80 80 -130 0 -76
-74 -150 -151 -150 -73 0 -149 76 -149 150 0 48 35 107 78 129 48 26 93 26
142 1z m1800 0 c45 -23 80 -80 80 -130 0 -76 -74 -150 -151 -150 -73 0 -149
76 -149 150 0 48 35 107 78 129 48 26 93 26 142 1z"/>
</g>
</svg>
