<svg width="26" height="37" viewBox="0 0 26 37" fill="none" xmlns="http://www.w3.org/2000/svg">
<path d="M3.66843 1.88978C4.39415 1.2535 5.30934 0.85 6.37928 0.85H6.67295L6.66606 0.859518C7.58347 0.918922 8.37085 1.26256 8.99811 1.79882C9.68733 2.38779 10.1891 3.19564 10.5528 4.09263L10.5528 4.09265C11.2791 5.8847 11.495 8.09841 11.495 10.0479C11.495 11.2522 11.2856 12.5323 11.0787 13.691C11.0552 13.8225 11.0318 13.9523 11.0088 14.0802C10.827 15.0878 10.6671 15.9742 10.6671 16.6281C10.6671 18.1998 10.964 19.3092 11.2675 20.231L11.125 20.2779L11.2675 20.231C11.3269 20.4114 11.3883 20.5865 11.4485 20.7583C11.6921 21.4532 11.9164 22.0931 11.9086 22.7978C11.9084 23.7388 11.6018 24.531 11.0339 25.0652L3.66843 1.88978ZM3.66843 1.88978C2.94558 2.52334 2.39893 3.37553 1.98766 4.30663L1.98766 4.30663C1.166 6.16705 0.85 8.38511 0.85 10.0476C0.85 11.171 1.16724 12.6468 1.68898 14.2015C2.20754 15.7467 2.93167 17.3804 3.75999 18.8404C3.78623 20.9019 4.30656 22.6147 5.19779 23.8363C6.11002 25.087 7.41862 25.8212 8.84861 25.8257H8.84909H8.86088C9.68793 25.8382 10.4703 25.5953 11.0338 25.0652L3.66843 1.88978ZM4.40912 2.73187C4.95145 2.25644 5.5687 1.98309 6.33273 1.97244H6.37928C7.16479 1.97244 7.75689 2.21304 8.26041 2.64327C8.76702 3.07663 9.18088 3.71594 9.49903 4.50077C10.1359 6.07195 10.3672 8.17761 10.3672 10.0476C10.3672 11.1227 10.1631 12.3092 9.95583 13.4609C9.94502 13.5209 9.9342 13.5809 9.92339 13.6408C9.72849 14.7212 9.5397 15.7678 9.5397 16.6278C9.5397 16.8857 9.54437 17.1332 9.5574 17.3725L4.6243 18.0713C3.872 16.7065 3.21544 15.165 2.74418 13.7368C2.26142 12.2738 1.97757 10.9431 1.97757 10.0473C1.97757 8.52211 2.29156 6.42275 3.02501 4.7618C3.39196 3.93112 3.85372 3.2188 4.40912 2.73187ZM4.40912 2.73187L4.31024 2.61907L4.40912 2.73187ZM19.3342 11.5518L19.3274 11.5423H19.6207C20.6907 11.5423 21.6059 11.9458 22.3316 12.5818L22.3316 12.5818C23.0545 13.2156 23.6011 14.0675 24.0123 14.9986C24.834 16.8593 25.15 19.0771 25.15 20.7398C25.15 21.8633 24.8328 23.3391 24.311 24.8938C23.7925 26.439 23.0683 28.0726 22.24 29.5327C22.2138 31.5941 21.6935 33.307 20.8022 34.5286C19.89 35.7793 18.5814 36.5132 17.1514 36.518L17.1509 36.518H17.139C16.312 36.5305 15.5297 36.2876 14.9661 35.7575L15.0689 35.6482L14.9661 35.7574C14.3982 35.2231 14.0916 34.4309 14.0914 33.4901C14.0914 33.4898 14.0914 33.4895 14.0914 33.4893H14.2414L19.3342 11.5518ZM19.3342 11.5518C18.4167 11.6111 17.6292 11.9545 17.0019 12.4911L19.3342 11.5518ZM16.3205 29.1855C16.1936 30.006 15.9974 30.693 15.8062 31.2738L15.8062 31.2739C15.7455 31.4581 15.6868 31.6303 15.6314 31.793C15.5393 32.063 15.4563 32.3067 15.3882 32.5353C15.2798 32.8993 15.2157 33.2059 15.2188 33.4873L15.2188 33.4889C15.2188 34.1936 15.4278 34.6533 15.7405 34.9474C16.054 35.2423 16.5133 35.406 17.1193 35.3953C17.1202 35.3953 17.1211 35.3953 17.1221 35.3953L16.3205 29.1855ZM16.3205 29.1855L21.108 29.8531M16.3205 29.1855L21.108 29.8531M21.108 29.8531C21.0336 31.573 20.5661 32.9326 19.8875 33.863C19.1477 34.8772 18.1866 35.394 17.1416 35.3952L21.108 29.8531ZM19.6209 12.6654H19.6675C20.4315 12.676 21.0488 12.9493 21.5911 13.4248L21.69 13.312L21.5911 13.4248C22.1465 13.9117 22.6083 14.6238 22.9752 15.4544C23.7086 17.1154 24.0226 19.215 24.0226 20.7402C24.0226 21.6357 23.7388 22.9664 23.256 24.4295C22.7848 25.8577 22.1282 27.3993 21.3759 28.7642L16.4428 28.0654C16.4558 27.8261 16.4605 27.5784 16.4605 27.3207C16.4605 26.4605 16.2717 25.4138 16.0768 24.3333C16.066 24.2735 16.0552 24.2136 16.0444 24.1536C15.8371 23.0019 15.633 21.8155 15.633 20.7405C15.633 18.8705 15.8643 16.7649 16.5012 15.1934C16.8193 14.4089 17.2332 13.7695 17.7398 13.3362C18.2433 12.9057 18.8353 12.6654 19.6209 12.6654ZM4.89166 19.1606L9.67904 18.4807C9.80587 19.3063 10.0014 19.9977 10.1935 20.5814C10.2543 20.7661 10.3131 20.9387 10.3687 21.1016C10.4606 21.3713 10.5435 21.6146 10.6115 21.843C10.7199 22.2069 10.7839 22.5134 10.7809 22.7948V22.7964C10.7809 23.5012 10.5719 23.9607 10.2592 24.2552C9.9452 24.5505 9.48501 24.7143 8.87767 24.7028L8.87767 24.7028H8.87483H8.86184C7.81544 24.7028 6.85294 24.1859 6.11214 23.1708C5.43351 22.2401 4.96602 20.8806 4.89166 19.1606Z" fill="white" stroke="white" stroke-width="0.3"/>
</svg>
