<svg width="38" height="32" viewBox="0 0 38 32" fill="none" xmlns="http://www.w3.org/2000/svg">
<mask id="path-1-outside-1_406_749" maskUnits="userSpaceOnUse" x="0" y="0" width="38" height="32" fill="black">
<rect fill="white" width="38" height="32"/>
<path d="M26.9271 1C23.4956 1 20.4738 1.67405 18.6336 2.78867C18.5399 2.84594 18.4739 2.93598 18.4509 3.03896C18.4275 3.14194 18.4485 3.24933 18.5093 3.33772C18.57 3.4261 18.6655 3.48806 18.7747 3.51008C18.8836 3.53211 18.9978 3.51201 19.0915 3.45474C20.7059 2.47698 23.6167 1.78943 26.9267 1.78943C29.5452 1.78943 31.908 2.21704 33.5849 2.88751C34.4235 3.22261 35.086 3.61144 35.5207 4.02225C35.9555 4.43307 36.1619 4.83647 36.1619 5.24341C36.1619 5.65064 35.9555 6.06616 35.5207 6.47697C35.086 6.88806 34.4234 7.27688 33.5849 7.61199C31.908 8.28219 29.5452 8.70979 26.9267 8.70979C24.3082 8.70979 21.9322 8.28272 20.2553 7.61199C19.4167 7.27661 18.7539 6.88834 18.3192 6.47697C17.8844 6.06588 17.6914 5.65175 17.6914 5.24341C17.6882 5.02781 17.5016 4.85434 17.2727 4.85434C17.0438 4.85434 16.8575 5.02781 16.8543 5.24341V7.59958C16.8525 7.70532 16.896 7.80719 16.9746 7.88236C17.0534 7.95753 17.1609 7.99994 17.2727 7.99994C17.3848 7.99994 17.4923 7.95754 17.5708 7.88236C17.6496 7.80719 17.6929 7.70532 17.6914 7.59958V6.9828C17.7072 6.99822 17.7145 7.01694 17.7305 7.03209C18.273 7.54533 19.0194 7.97629 19.9283 8.33974C21.7462 9.0669 24.2121 9.49922 26.9267 9.49922C29.641 9.49922 32.094 9.06637 33.9119 8.33974C34.8209 7.97655 35.58 7.54483 36.1226 7.03209C36.6651 6.51939 36.9991 5.90236 36.9991 5.24342C36.9991 4.58478 36.6651 3.97983 36.1226 3.46716C35.58 2.95446 34.8209 2.52296 33.9119 2.15951C32.094 1.43284 29.6413 1 26.9271 1ZM11.0728 8.84546C7.64134 8.84546 4.61983 9.53164 2.77935 10.6465C2.68563 10.7038 2.61993 10.7938 2.59657 10.8966C2.57321 10.9995 2.59423 11.1072 2.65497 11.1956C2.7157 11.2837 2.81118 11.3459 2.92039 11.3677C3.02959 11.3897 3.14347 11.3699 3.2372 11.3126C4.85163 10.3349 7.76273 9.63489 11.0724 9.63489C13.6909 9.63489 16.0668 10.0625 17.7438 10.7327C18.5824 11.0681 19.2452 11.4692 19.6799 11.88C20.1147 12.2909 20.3077 12.6943 20.3077 13.1012C20.3077 13.5084 20.1147 13.9115 19.6799 14.3224C19.2451 14.7332 18.5823 15.1344 17.7438 15.4697C16.0668 16.1399 13.6909 16.5675 11.0724 16.5675C8.45386 16.5675 6.09104 16.1281 4.4142 15.4573C3.57559 15.1219 2.91308 14.7337 2.47834 14.3223C2.04357 13.9109 1.83714 13.4971 1.83714 13.0887C1.83393 12.8729 1.64763 12.6997 1.41871 12.6997C1.1898 12.6997 1.00321 12.8729 1 13.0887V27.3734C1 27.9756 1.35593 28.5054 1.90252 28.9399C2.44942 29.3744 3.20772 29.737 4.11345 30.0377C5.92462 30.639 8.36682 31 11.0724 31C13.7783 31 16.2333 30.639 18.0448 30.0377C18.9503 29.737 19.6954 29.3744 20.2423 28.9399C20.7892 28.5054 21.1448 27.9759 21.1448 27.3734V18.4917C21.1416 18.2759 20.9553 18.1024 20.7264 18.1024C20.4975 18.1024 20.3109 18.2759 20.3077 18.4917C20.3077 18.7996 20.1363 19.1239 19.7059 19.4662C19.2755 19.8082 18.6118 20.1488 17.77 20.4282C16.0865 20.9875 13.7 21.3289 11.0724 21.3289C8.67747 21.3289 6.48082 21.0455 4.81975 20.5763C3.1586 20.1071 2.07331 19.4086 1.83711 18.8739V14.8279C1.85317 14.8433 1.86017 14.8621 1.87653 14.8772C2.41904 15.3904 3.17821 15.8214 4.08716 16.1848C5.90506 16.912 8.3581 17.3567 11.0724 17.3567C13.787 17.3567 16.2529 16.9115 18.0708 16.1848C18.9797 15.8214 19.7261 15.3899 20.2685 14.8772C20.8111 14.3645 21.1448 13.7596 21.1448 13.1009C21.1448 12.4423 20.8111 11.8249 20.2685 11.3123C19.726 10.7996 18.9797 10.3681 18.0708 10.0046C16.2529 9.27795 13.7874 8.84546 11.0728 8.84546ZM36.4897 9.00572C36.2947 9.04702 36.1577 9.21223 36.1627 9.40057V11.0166C36.158 11.0246 36.1536 11.0329 36.1495 11.0411C35.8576 11.6067 34.7428 12.2843 33.0886 12.7436C31.4342 13.2026 29.2729 13.4837 26.9274 13.4837C25.687 13.4837 24.5042 13.4019 23.4215 13.2615C23.3105 13.2469 23.1978 13.2744 23.1085 13.3381C23.0188 13.4017 22.9596 13.4961 22.9441 13.6007C22.9286 13.7056 22.9575 13.8119 23.025 13.8962C23.0924 13.9807 23.1929 14.0363 23.3038 14.0512C24.4268 14.1966 25.6503 14.2731 26.9274 14.2731C29.3427 14.2731 31.5686 13.9956 33.324 13.5082C34.5244 13.175 35.4944 12.7504 36.1628 12.2129V15.5931C36.1575 15.6052 36.1534 15.6173 36.1496 15.63C36.0968 15.8999 35.8573 16.2248 35.3908 16.5428C34.9245 16.8611 34.2511 17.1618 33.4157 17.4187C31.7444 17.9322 29.4517 18.2574 26.9274 18.2574C25.619 18.2574 24.3685 18.1659 23.2384 18.0107C23.1275 17.9961 23.0148 18.0236 22.9251 18.0872C22.8358 18.1508 22.7765 18.2452 22.761 18.3499C22.7453 18.4548 22.7745 18.5611 22.8419 18.6453C22.9094 18.7299 23.0098 18.7855 23.1208 18.8004C24.2936 18.9614 25.5799 19.0471 26.9274 19.0471C29.527 19.0471 31.8912 18.7199 33.6774 18.1712C34.5702 17.8966 35.318 17.5604 35.888 17.1719C35.9881 17.1036 36.0731 17.0348 36.1627 16.9621V19.5157C36.1627 19.8235 35.9782 20.1482 35.5478 20.4901C35.1174 20.8321 34.4537 21.1727 33.612 21.4525C31.9281 22.0114 29.5548 22.3528 26.9274 22.3528C25.5507 22.3528 24.2441 22.2661 23.0685 22.0937C22.9547 22.0676 22.8346 22.0874 22.7371 22.1485C22.6399 22.2096 22.5739 22.3063 22.5555 22.4153C22.5371 22.5244 22.5681 22.6356 22.6408 22.7221C22.7132 22.8088 22.8209 22.8628 22.9377 22.871C24.16 23.05 25.5095 23.1423 26.9274 23.1423C29.633 23.1423 32.0752 22.7939 33.8864 22.1926C34.7922 21.8916 35.5505 21.529 36.0974 21.0945C36.644 20.6603 36.9999 20.1181 36.9999 19.5157V9.40044C37.0028 9.27901 36.9465 9.16281 36.8469 9.08572C36.7473 9.00862 36.6153 8.97928 36.4897 9.00572ZM20.308 19.9971V23.4266C20.3025 23.4425 20.2981 23.4591 20.2949 23.4759C20.2423 23.7457 20.0157 24.0706 19.5494 24.3886C19.0828 24.7066 18.3967 25.0076 17.561 25.2645C15.8899 25.7781 13.5969 26.1032 11.0727 26.1032C8.54838 26.1032 6.25575 25.778 4.58436 25.2645C3.74896 25.0076 3.07562 24.7067 2.60934 24.3886C2.14274 24.0706 1.90331 23.7457 1.85049 23.4759C1.84669 23.4632 1.8426 23.4508 1.83735 23.4387V20.0835C2.48381 20.5965 3.4147 21.0026 4.57152 21.3295C6.33545 21.8276 8.60648 22.1189 11.0727 22.1189C13.7785 22.1189 16.2336 21.7706 18.045 21.1689C18.9505 20.8682 19.6957 20.5056 20.2425 20.0711C20.2703 20.0491 20.2815 20.0197 20.308 19.9971ZM1.83752 24.8204C1.92715 24.8937 2.01212 24.9617 2.11228 25.0302C2.68224 25.4188 3.43003 25.7425 4.32291 26.0171C6.10904 26.5659 8.4732 26.8927 11.0728 26.8927C13.6724 26.8927 16.0369 26.5659 17.8228 26.0171C18.7156 25.7426 19.4637 25.4188 20.0334 25.0302C20.1335 24.9617 20.2188 24.8937 20.3081 24.8204V27.374C20.3081 27.6816 20.1367 27.9941 19.7064 28.3361C19.276 28.6781 18.6122 29.0187 17.7705 29.2981C16.0869 29.8574 13.7005 30.2112 11.0728 30.2112C8.44555 30.2112 6.07226 29.8573 4.38831 29.2981C3.54649 29.0186 2.88279 28.678 2.45246 28.3361C2.02213 27.9941 1.83753 27.6816 1.83753 27.374L1.83752 24.8204Z"/>
</mask>
<path d="M26.9271 1C23.4956 1 20.4738 1.67405 18.6336 2.78867C18.5399 2.84594 18.4739 2.93598 18.4509 3.03896C18.4275 3.14194 18.4485 3.24933 18.5093 3.33772C18.57 3.4261 18.6655 3.48806 18.7747 3.51008C18.8836 3.53211 18.9978 3.51201 19.0915 3.45474C20.7059 2.47698 23.6167 1.78943 26.9267 1.78943C29.5452 1.78943 31.908 2.21704 33.5849 2.88751C34.4235 3.22261 35.086 3.61144 35.5207 4.02225C35.9555 4.43307 36.1619 4.83647 36.1619 5.24341C36.1619 5.65064 35.9555 6.06616 35.5207 6.47697C35.086 6.88806 34.4234 7.27688 33.5849 7.61199C31.908 8.28219 29.5452 8.70979 26.9267 8.70979C24.3082 8.70979 21.9322 8.28272 20.2553 7.61199C19.4167 7.27661 18.7539 6.88834 18.3192 6.47697C17.8844 6.06588 17.6914 5.65175 17.6914 5.24341C17.6882 5.02781 17.5016 4.85434 17.2727 4.85434C17.0438 4.85434 16.8575 5.02781 16.8543 5.24341V7.59958C16.8525 7.70532 16.896 7.80719 16.9746 7.88236C17.0534 7.95753 17.1609 7.99994 17.2727 7.99994C17.3848 7.99994 17.4923 7.95754 17.5708 7.88236C17.6496 7.80719 17.6929 7.70532 17.6914 7.59958V6.9828C17.7072 6.99822 17.7145 7.01694 17.7305 7.03209C18.273 7.54533 19.0194 7.97629 19.9283 8.33974C21.7462 9.0669 24.2121 9.49922 26.9267 9.49922C29.641 9.49922 32.094 9.06637 33.9119 8.33974C34.8209 7.97655 35.58 7.54483 36.1226 7.03209C36.6651 6.51939 36.9991 5.90236 36.9991 5.24342C36.9991 4.58478 36.6651 3.97983 36.1226 3.46716C35.58 2.95446 34.8209 2.52296 33.9119 2.15951C32.094 1.43284 29.6413 1 26.9271 1ZM11.0728 8.84546C7.64134 8.84546 4.61983 9.53164 2.77935 10.6465C2.68563 10.7038 2.61993 10.7938 2.59657 10.8966C2.57321 10.9995 2.59423 11.1072 2.65497 11.1956C2.7157 11.2837 2.81118 11.3459 2.92039 11.3677C3.02959 11.3897 3.14347 11.3699 3.2372 11.3126C4.85163 10.3349 7.76273 9.63489 11.0724 9.63489C13.6909 9.63489 16.0668 10.0625 17.7438 10.7327C18.5824 11.0681 19.2452 11.4692 19.6799 11.88C20.1147 12.2909 20.3077 12.6943 20.3077 13.1012C20.3077 13.5084 20.1147 13.9115 19.6799 14.3224C19.2451 14.7332 18.5823 15.1344 17.7438 15.4697C16.0668 16.1399 13.6909 16.5675 11.0724 16.5675C8.45386 16.5675 6.09104 16.1281 4.4142 15.4573C3.57559 15.1219 2.91308 14.7337 2.47834 14.3223C2.04357 13.9109 1.83714 13.4971 1.83714 13.0887C1.83393 12.8729 1.64763 12.6997 1.41871 12.6997C1.1898 12.6997 1.00321 12.8729 1 13.0887V27.3734C1 27.9756 1.35593 28.5054 1.90252 28.9399C2.44942 29.3744 3.20772 29.737 4.11345 30.0377C5.92462 30.639 8.36682 31 11.0724 31C13.7783 31 16.2333 30.639 18.0448 30.0377C18.9503 29.737 19.6954 29.3744 20.2423 28.9399C20.7892 28.5054 21.1448 27.9759 21.1448 27.3734V18.4917C21.1416 18.2759 20.9553 18.1024 20.7264 18.1024C20.4975 18.1024 20.3109 18.2759 20.3077 18.4917C20.3077 18.7996 20.1363 19.1239 19.7059 19.4662C19.2755 19.8082 18.6118 20.1488 17.77 20.4282C16.0865 20.9875 13.7 21.3289 11.0724 21.3289C8.67747 21.3289 6.48082 21.0455 4.81975 20.5763C3.1586 20.1071 2.07331 19.4086 1.83711 18.8739V14.8279C1.85317 14.8433 1.86017 14.8621 1.87653 14.8772C2.41904 15.3904 3.17821 15.8214 4.08716 16.1848C5.90506 16.912 8.3581 17.3567 11.0724 17.3567C13.787 17.3567 16.2529 16.9115 18.0708 16.1848C18.9797 15.8214 19.7261 15.3899 20.2685 14.8772C20.8111 14.3645 21.1448 13.7596 21.1448 13.1009C21.1448 12.4423 20.8111 11.8249 20.2685 11.3123C19.726 10.7996 18.9797 10.3681 18.0708 10.0046C16.2529 9.27795 13.7874 8.84546 11.0728 8.84546ZM36.4897 9.00572C36.2947 9.04702 36.1577 9.21223 36.1627 9.40057V11.0166C36.158 11.0246 36.1536 11.0329 36.1495 11.0411C35.8576 11.6067 34.7428 12.2843 33.0886 12.7436C31.4342 13.2026 29.2729 13.4837 26.9274 13.4837C25.687 13.4837 24.5042 13.4019 23.4215 13.2615C23.3105 13.2469 23.1978 13.2744 23.1085 13.3381C23.0188 13.4017 22.9596 13.4961 22.9441 13.6007C22.9286 13.7056 22.9575 13.8119 23.025 13.8962C23.0924 13.9807 23.1929 14.0363 23.3038 14.0512C24.4268 14.1966 25.6503 14.2731 26.9274 14.2731C29.3427 14.2731 31.5686 13.9956 33.324 13.5082C34.5244 13.175 35.4944 12.7504 36.1628 12.2129V15.5931C36.1575 15.6052 36.1534 15.6173 36.1496 15.63C36.0968 15.8999 35.8573 16.2248 35.3908 16.5428C34.9245 16.8611 34.2511 17.1618 33.4157 17.4187C31.7444 17.9322 29.4517 18.2574 26.9274 18.2574C25.619 18.2574 24.3685 18.1659 23.2384 18.0107C23.1275 17.9961 23.0148 18.0236 22.9251 18.0872C22.8358 18.1508 22.7765 18.2452 22.761 18.3499C22.7453 18.4548 22.7745 18.5611 22.8419 18.6453C22.9094 18.7299 23.0098 18.7855 23.1208 18.8004C24.2936 18.9614 25.5799 19.0471 26.9274 19.0471C29.527 19.0471 31.8912 18.7199 33.6774 18.1712C34.5702 17.8966 35.318 17.5604 35.888 17.1719C35.9881 17.1036 36.0731 17.0348 36.1627 16.9621V19.5157C36.1627 19.8235 35.9782 20.1482 35.5478 20.4901C35.1174 20.8321 34.4537 21.1727 33.612 21.4525C31.9281 22.0114 29.5548 22.3528 26.9274 22.3528C25.5507 22.3528 24.2441 22.2661 23.0685 22.0937C22.9547 22.0676 22.8346 22.0874 22.7371 22.1485C22.6399 22.2096 22.5739 22.3063 22.5555 22.4153C22.5371 22.5244 22.5681 22.6356 22.6408 22.7221C22.7132 22.8088 22.8209 22.8628 22.9377 22.871C24.16 23.05 25.5095 23.1423 26.9274 23.1423C29.633 23.1423 32.0752 22.7939 33.8864 22.1926C34.7922 21.8916 35.5505 21.529 36.0974 21.0945C36.644 20.6603 36.9999 20.1181 36.9999 19.5157V9.40044C37.0028 9.27901 36.9465 9.16281 36.8469 9.08572C36.7473 9.00862 36.6153 8.97928 36.4897 9.00572ZM20.308 19.9971V23.4266C20.3025 23.4425 20.2981 23.4591 20.2949 23.4759C20.2423 23.7457 20.0157 24.0706 19.5494 24.3886C19.0828 24.7066 18.3967 25.0076 17.561 25.2645C15.8899 25.7781 13.5969 26.1032 11.0727 26.1032C8.54838 26.1032 6.25575 25.778 4.58436 25.2645C3.74896 25.0076 3.07562 24.7067 2.60934 24.3886C2.14274 24.0706 1.90331 23.7457 1.85049 23.4759C1.84669 23.4632 1.8426 23.4508 1.83735 23.4387V20.0835C2.48381 20.5965 3.4147 21.0026 4.57152 21.3295C6.33545 21.8276 8.60648 22.1189 11.0727 22.1189C13.7785 22.1189 16.2336 21.7706 18.045 21.1689C18.9505 20.8682 19.6957 20.5056 20.2425 20.0711C20.2703 20.0491 20.2815 20.0197 20.308 19.9971ZM1.83752 24.8204C1.92715 24.8937 2.01212 24.9617 2.11228 25.0302C2.68224 25.4188 3.43003 25.7425 4.32291 26.0171C6.10904 26.5659 8.4732 26.8927 11.0728 26.8927C13.6724 26.8927 16.0369 26.5659 17.8228 26.0171C18.7156 25.7426 19.4637 25.4188 20.0334 25.0302C20.1335 24.9617 20.2188 24.8937 20.3081 24.8204V27.374C20.3081 27.6816 20.1367 27.9941 19.7064 28.3361C19.276 28.6781 18.6122 29.0187 17.7705 29.2981C16.0869 29.8574 13.7005 30.2112 11.0728 30.2112C8.44555 30.2112 6.07226 29.8573 4.38831 29.2981C3.54649 29.0186 2.88279 28.678 2.45246 28.3361C2.02213 27.9941 1.83753 27.6816 1.83753 27.374L1.83752 24.8204Z" fill="white"/>
<path d="M26.9271 1C23.4956 1 20.4738 1.67405 18.6336 2.78867C18.5399 2.84594 18.4739 2.93598 18.4509 3.03896C18.4275 3.14194 18.4485 3.24933 18.5093 3.33772C18.57 3.4261 18.6655 3.48806 18.7747 3.51008C18.8836 3.53211 18.9978 3.51201 19.0915 3.45474C20.7059 2.47698 23.6167 1.78943 26.9267 1.78943C29.5452 1.78943 31.908 2.21704 33.5849 2.88751C34.4235 3.22261 35.086 3.61144 35.5207 4.02225C35.9555 4.43307 36.1619 4.83647 36.1619 5.24341C36.1619 5.65064 35.9555 6.06616 35.5207 6.47697C35.086 6.88806 34.4234 7.27688 33.5849 7.61199C31.908 8.28219 29.5452 8.70979 26.9267 8.70979C24.3082 8.70979 21.9322 8.28272 20.2553 7.61199C19.4167 7.27661 18.7539 6.88834 18.3192 6.47697C17.8844 6.06588 17.6914 5.65175 17.6914 5.24341C17.6882 5.02781 17.5016 4.85434 17.2727 4.85434C17.0438 4.85434 16.8575 5.02781 16.8543 5.24341V7.59958C16.8525 7.70532 16.896 7.80719 16.9746 7.88236C17.0534 7.95753 17.1609 7.99994 17.2727 7.99994C17.3848 7.99994 17.4923 7.95754 17.5708 7.88236C17.6496 7.80719 17.6929 7.70532 17.6914 7.59958V6.9828C17.7072 6.99822 17.7145 7.01694 17.7305 7.03209C18.273 7.54533 19.0194 7.97629 19.9283 8.33974C21.7462 9.0669 24.2121 9.49922 26.9267 9.49922C29.641 9.49922 32.094 9.06637 33.9119 8.33974C34.8209 7.97655 35.58 7.54483 36.1226 7.03209C36.6651 6.51939 36.9991 5.90236 36.9991 5.24342C36.9991 4.58478 36.6651 3.97983 36.1226 3.46716C35.58 2.95446 34.8209 2.52296 33.9119 2.15951C32.094 1.43284 29.6413 1 26.9271 1ZM11.0728 8.84546C7.64134 8.84546 4.61983 9.53164 2.77935 10.6465C2.68563 10.7038 2.61993 10.7938 2.59657 10.8966C2.57321 10.9995 2.59423 11.1072 2.65497 11.1956C2.7157 11.2837 2.81118 11.3459 2.92039 11.3677C3.02959 11.3897 3.14347 11.3699 3.2372 11.3126C4.85163 10.3349 7.76273 9.63489 11.0724 9.63489C13.6909 9.63489 16.0668 10.0625 17.7438 10.7327C18.5824 11.0681 19.2452 11.4692 19.6799 11.88C20.1147 12.2909 20.3077 12.6943 20.3077 13.1012C20.3077 13.5084 20.1147 13.9115 19.6799 14.3224C19.2451 14.7332 18.5823 15.1344 17.7438 15.4697C16.0668 16.1399 13.6909 16.5675 11.0724 16.5675C8.45386 16.5675 6.09104 16.1281 4.4142 15.4573C3.57559 15.1219 2.91308 14.7337 2.47834 14.3223C2.04357 13.9109 1.83714 13.4971 1.83714 13.0887C1.83393 12.8729 1.64763 12.6997 1.41871 12.6997C1.1898 12.6997 1.00321 12.8729 1 13.0887V27.3734C1 27.9756 1.35593 28.5054 1.90252 28.9399C2.44942 29.3744 3.20772 29.737 4.11345 30.0377C5.92462 30.639 8.36682 31 11.0724 31C13.7783 31 16.2333 30.639 18.0448 30.0377C18.9503 29.737 19.6954 29.3744 20.2423 28.9399C20.7892 28.5054 21.1448 27.9759 21.1448 27.3734V18.4917C21.1416 18.2759 20.9553 18.1024 20.7264 18.1024C20.4975 18.1024 20.3109 18.2759 20.3077 18.4917C20.3077 18.7996 20.1363 19.1239 19.7059 19.4662C19.2755 19.8082 18.6118 20.1488 17.77 20.4282C16.0865 20.9875 13.7 21.3289 11.0724 21.3289C8.67747 21.3289 6.48082 21.0455 4.81975 20.5763C3.1586 20.1071 2.07331 19.4086 1.83711 18.8739V14.8279C1.85317 14.8433 1.86017 14.8621 1.87653 14.8772C2.41904 15.3904 3.17821 15.8214 4.08716 16.1848C5.90506 16.912 8.3581 17.3567 11.0724 17.3567C13.787 17.3567 16.2529 16.9115 18.0708 16.1848C18.9797 15.8214 19.7261 15.3899 20.2685 14.8772C20.8111 14.3645 21.1448 13.7596 21.1448 13.1009C21.1448 12.4423 20.8111 11.8249 20.2685 11.3123C19.726 10.7996 18.9797 10.3681 18.0708 10.0046C16.2529 9.27795 13.7874 8.84546 11.0728 8.84546ZM36.4897 9.00572C36.2947 9.04702 36.1577 9.21223 36.1627 9.40057V11.0166C36.158 11.0246 36.1536 11.0329 36.1495 11.0411C35.8576 11.6067 34.7428 12.2843 33.0886 12.7436C31.4342 13.2026 29.2729 13.4837 26.9274 13.4837C25.687 13.4837 24.5042 13.4019 23.4215 13.2615C23.3105 13.2469 23.1978 13.2744 23.1085 13.3381C23.0188 13.4017 22.9596 13.4961 22.9441 13.6007C22.9286 13.7056 22.9575 13.8119 23.025 13.8962C23.0924 13.9807 23.1929 14.0363 23.3038 14.0512C24.4268 14.1966 25.6503 14.2731 26.9274 14.2731C29.3427 14.2731 31.5686 13.9956 33.324 13.5082C34.5244 13.175 35.4944 12.7504 36.1628 12.2129V15.5931C36.1575 15.6052 36.1534 15.6173 36.1496 15.63C36.0968 15.8999 35.8573 16.2248 35.3908 16.5428C34.9245 16.8611 34.2511 17.1618 33.4157 17.4187C31.7444 17.9322 29.4517 18.2574 26.9274 18.2574C25.619 18.2574 24.3685 18.1659 23.2384 18.0107C23.1275 17.9961 23.0148 18.0236 22.9251 18.0872C22.8358 18.1508 22.7765 18.2452 22.761 18.3499C22.7453 18.4548 22.7745 18.5611 22.8419 18.6453C22.9094 18.7299 23.0098 18.7855 23.1208 18.8004C24.2936 18.9614 25.5799 19.0471 26.9274 19.0471C29.527 19.0471 31.8912 18.7199 33.6774 18.1712C34.5702 17.8966 35.318 17.5604 35.888 17.1719C35.9881 17.1036 36.0731 17.0348 36.1627 16.9621V19.5157C36.1627 19.8235 35.9782 20.1482 35.5478 20.4901C35.1174 20.8321 34.4537 21.1727 33.612 21.4525C31.9281 22.0114 29.5548 22.3528 26.9274 22.3528C25.5507 22.3528 24.2441 22.2661 23.0685 22.0937C22.9547 22.0676 22.8346 22.0874 22.7371 22.1485C22.6399 22.2096 22.5739 22.3063 22.5555 22.4153C22.5371 22.5244 22.5681 22.6356 22.6408 22.7221C22.7132 22.8088 22.8209 22.8628 22.9377 22.871C24.16 23.05 25.5095 23.1423 26.9274 23.1423C29.633 23.1423 32.0752 22.7939 33.8864 22.1926C34.7922 21.8916 35.5505 21.529 36.0974 21.0945C36.644 20.6603 36.9999 20.1181 36.9999 19.5157V9.40044C37.0028 9.27901 36.9465 9.16281 36.8469 9.08572C36.7473 9.00862 36.6153 8.97928 36.4897 9.00572ZM20.308 19.9971V23.4266C20.3025 23.4425 20.2981 23.4591 20.2949 23.4759C20.2423 23.7457 20.0157 24.0706 19.5494 24.3886C19.0828 24.7066 18.3967 25.0076 17.561 25.2645C15.8899 25.7781 13.5969 26.1032 11.0727 26.1032C8.54838 26.1032 6.25575 25.778 4.58436 25.2645C3.74896 25.0076 3.07562 24.7067 2.60934 24.3886C2.14274 24.0706 1.90331 23.7457 1.85049 23.4759C1.84669 23.4632 1.8426 23.4508 1.83735 23.4387V20.0835C2.48381 20.5965 3.4147 21.0026 4.57152 21.3295C6.33545 21.8276 8.60648 22.1189 11.0727 22.1189C13.7785 22.1189 16.2336 21.7706 18.045 21.1689C18.9505 20.8682 19.6957 20.5056 20.2425 20.0711C20.2703 20.0491 20.2815 20.0197 20.308 19.9971ZM1.83752 24.8204C1.92715 24.8937 2.01212 24.9617 2.11228 25.0302C2.68224 25.4188 3.43003 25.7425 4.32291 26.0171C6.10904 26.5659 8.4732 26.8927 11.0728 26.8927C13.6724 26.8927 16.0369 26.5659 17.8228 26.0171C18.7156 25.7426 19.4637 25.4188 20.0334 25.0302C20.1335 24.9617 20.2188 24.8937 20.3081 24.8204V27.374C20.3081 27.6816 20.1367 27.9941 19.7064 28.3361C19.276 28.6781 18.6122 29.0187 17.7705 29.2981C16.0869 29.8574 13.7005 30.2112 11.0728 30.2112C8.44555 30.2112 6.07226 29.8573 4.38831 29.2981C3.54649 29.0186 2.88279 28.678 2.45246 28.3361C2.02213 27.9941 1.83753 27.6816 1.83753 27.374L1.83752 24.8204Z" stroke="white" stroke-width="0.8" mask="url(#path-1-outside-1_406_749)"/>
</svg>
