<?xml version="1.0" standalone="no"?>
<!DOCTYPE svg PUBLIC "-//W3C//DTD SVG 20010904//EN"
 "http://www.w3.org/TR/2001/REC-SVG-20010904/DTD/svg10.dtd">
<svg version="1.0" xmlns="http://www.w3.org/2000/svg"
 width="144.000000pt" height="141.000000pt" viewBox="0 0 144.000000 141.000000"
 preserveAspectRatio="xMidYMid meet">

<g transform="translate(0.000000,141.000000) scale(0.100000,-0.100000)"
fill="#000000" stroke="none">
<path d="M306 1162 c-3 -5 -8 -27 -12 -49 -12 -77 -27 -79 -70 -11 -20 31 -28
38 -35 27 -15 -24 -10 -58 16 -109 14 -28 25 -52 25 -55 0 -3 7 -16 16 -30 30
-46 47 -5 19 49 -14 27 -14 28 5 23 21 -5 36 7 42 38 4 17 7 14 20 -15 8 -19
11 -36 7 -38 -5 -2 -17 -18 -28 -35 -16 -26 -20 -52 -21 -147 -3 -169 -3 -169
29 -201 32 -32 71 -38 116 -17 40 18 55 57 55 141 0 70 -1 74 -27 88 -20 11
-27 11 -30 2 -3 -7 -16 -13 -29 -13 -20 0 -24 -5 -24 -30 0 -23 4 -30 20 -30
17 0 20 -7 20 -50 0 -49 -1 -50 -30 -50 l-30 0 0 128 c0 127 0 127 23 127 16
0 23 -5 20 -15 -5 -20 24 -58 34 -45 5 6 14 10 21 11 6 1 16 2 21 3 7 1 15 40
25 136 1 17 6 47 11 68 5 25 4 37 -4 37 -6 0 -12 -6 -12 -12 -1 -7 -4 0 -8 16
-8 41 -27 43 -40 5 -9 -26 -13 -30 -26 -19 -12 10 -16 8 -25 -15 -14 -37 -13
-52 6 -59 28 -11 41 -7 53 17 10 19 11 18 7 -17 -3 -21 -7 -40 -9 -42 -1 -2
-19 2 -39 8 -35 10 -37 14 -54 82 -22 91 -42 124 -58 98z"/>
<path d="M1148 1013 c-13 -28 -15 -28 -106 -27 l-92 0 0 -204 0 -203 33 3 32
3 3 83 3 82 44 0 c43 0 45 1 45 30 0 29 -2 30 -45 30 l-45 0 0 53 0 52 51 1
c53 0 73 15 64 45 -5 14 1 16 35 12 35 -4 41 -2 49 19 19 50 -47 70 -71 21z"/>
<path d="M581 943 c-5 -21 -19 -74 -31 -118 -11 -44 -22 -96 -24 -115 -2 -19
-7 -56 -11 -82 l-8 -48 31 0 c32 0 42 14 42 56 0 20 5 24 30 24 32 0 55 -29
47 -59 -3 -14 4 -18 35 -20 l40 -2 -7 43 c-6 42 -49 247 -67 321 -8 32 -13 37
-38 37 -25 0 -31 -5 -39 -37z m47 -179 c1 -22 -2 -34 -9 -32 -6 2 -10 7 -10
11 1 4 1 18 1 32 0 39 15 30 18 -11z"/>
<path d="M749 958 c-4 -100 3 -364 10 -371 4 -4 43 -7 87 -5 l79 3 0 30 c0 29
-2 30 -52 33 l-53 3 0 64 c0 41 4 65 13 68 10 4 10 6 0 6 -10 1 -13 27 -13 96
l0 95 -35 0 c-29 0 -35 -4 -36 -22z"/>
<path d="M515 349 c-72 -4 -173 -17 -225 -29 -52 -11 -100 -22 -107 -22 -7 -1
-15 -8 -18 -15 -4 -12 5 -13 48 -8 28 4 70 9 92 11 22 3 54 7 70 9 207 24 256
27 405 22 91 -4 232 -15 314 -27 82 -11 151 -18 153 -16 5 5 -75 29 -167 50
-70 16 -302 37 -385 34 -27 -1 -108 -5 -180 -9z"/>
<path d="M920 266 c0 -9 7 -16 16 -16 17 0 14 22 -4 28 -7 2 -12 -3 -12 -12z"/>
<path d="M960 265 c0 -8 7 -15 15 -15 8 0 15 7 15 15 0 8 -7 15 -15 15 -8 0
-15 -7 -15 -15z"/>
</g>
</svg>
