<?xml version="1.0" standalone="no"?>
<!DOCTYPE svg PUBLIC "-//W3C//DTD SVG 20010904//EN"
 "http://www.w3.org/TR/2001/REC-SVG-20010904/DTD/svg10.dtd">
<svg version="1.0" xmlns="http://www.w3.org/2000/svg"
 width="512.000000pt" height="512.000000pt" viewBox="0 0 512.000000 512.000000"
 preserveAspectRatio="xMidYMid meet">

<g transform="translate(0.000000,512.000000) scale(0.100000,-0.100000)"
fill="#000000" stroke="none">
<path d="M1876 4675 c-643 -105 -1176 -561 -1370 -1172 -59 -189 -70 -270 -70
-513 0 -197 3 -238 22 -330 51 -234 152 -470 279 -650 98 -138 302 -339 437
-429 228 -152 455 -240 721 -282 128 -20 389 -15 529 10 227 40 486 147 671
276 l79 55 596 -594 c649 -647 619 -622 731 -614 142 10 230 160 174 296 -11
26 -199 220 -607 628 l-590 592 39 53 c227 311 344 726 313 1113 -35 432 -208
798 -522 1102 -233 226 -523 379 -844 445 -132 27 -457 35 -588 14z m516 -436
c500 -101 883 -487 994 -1001 26 -117 25 -380 0 -497 -56 -262 -170 -474 -351
-656 -432 -434 -1107 -497 -1625 -152 -106 71 -292 262 -359 370 -271 439
-262 976 24 1407 27 41 95 120 150 176 217 219 481 343 800 378 76 8 270 -5
367 -25z"/>
<path d="M1635 3651 c-103 -26 -165 -103 -165 -206 0 -31 7 -71 15 -91 8 -20
85 -107 179 -202 l165 -168 -160 -159 c-88 -88 -170 -178 -181 -200 -67 -128
24 -289 171 -303 89 -8 111 6 299 191 l172 171 163 -161 c89 -88 178 -169 197
-179 22 -11 57 -18 95 -19 79 0 143 36 182 103 34 58 38 146 9 202 -10 19 -91
108 -179 197 l-161 163 170 172 c178 181 194 205 194 290 0 51 -46 135 -89
163 -57 37 -114 49 -175 34 -47 -11 -64 -25 -226 -185 l-176 -174 -154 156
c-85 85 -173 166 -195 179 -46 26 -106 37 -150 26z"/>
</g>
</svg>
